<svg width="48" height="48" viewBox="0 0 48 48" fill="none" xmlns="http://www.w3.org/2000/svg">
<path d="M0 12C0 5.37258 5.37258 0 12 0H36C42.6274 0 48 5.37258 48 12V36C48 42.6274 42.6274 48 36 48H12C5.37258 48 0 42.6274 0 36V12Z" fill="#1E40C8" fill-opacity="0.2"/>
<path d="M34.5 29.25C34.5 29.6933 34.255 30.0783 33.8817 30.2766L24.665 35.4566C24.4783 35.5966 24.245 35.6666 24 35.6666C23.755 35.6666 23.5217 35.5966 23.335 35.4566L14.1183 30.2766C13.745 30.0783 13.5 29.6933 13.5 29.25V18.75C13.5 18.3066 13.745 17.9216 14.1183 17.7233L23.335 12.5433C23.5217 12.4033 23.755 12.3333 24 12.3333C24.245 12.3333 24.4783 12.4033 24.665 12.5433L33.8817 17.7233C34.255 17.9216 34.5 18.3066 34.5 18.75V29.25ZM24 14.8416L17.0467 18.75L24 22.6583L30.9533 18.75L24 14.8416Z" fill="#1E40C8"/>
</svg>
