<svg width="48" height="48" viewBox="0 0 48 48" fill="none" xmlns="http://www.w3.org/2000/svg">
<path d="M0 12C0 5.37258 5.37258 0 12 0H36C42.6274 0 48 5.37258 48 12V36C48 42.6274 42.6274 48 36 48H12C5.37258 48 0 42.6274 0 36V12Z" fill="#1E40C8" fill-opacity="0.2"/>
<path d="M14.8333 23.1667H33.1667C33.6269 23.1667 34 23.6144 34 24.1667C34 24.719 33.6269 25.1667 33.1667 25.1667H14.8333C14.373 25.1667 13.9999 24.719 13.9999 24.1667C13.9999 23.6144 14.3731 23.1667 14.8333 23.1667Z" fill="#1E40C8"/>
</svg>
