<svg width="48" height="48" viewBox="0 0 48 48" fill="none" xmlns="http://www.w3.org/2000/svg">
<path d="M0 12C0 5.37258 5.37258 0 12 0H36C42.6274 0 48 5.37258 48 12V36C48 42.6274 42.6274 48 36 48H12C5.37258 48 0 42.6274 0 36V12Z" fill="#1E40C8" fill-opacity="0.2"/>
<path d="M32.9999 23H25V14.9999C25 14.4481 24.552 14 23.9999 14C23.448 14 23 14.4481 23 14.9999V23H14.9999C14.4481 23 14 23.448 14 23.9999C14 24.552 14.4481 25 14.9999 25H23V32.9999C23 33.5519 23.448 34 23.9999 34C24.552 34 25 33.5519 25 32.9999V25H32.9999C33.5519 25 34 24.552 34 23.9999C34 23.448 33.5519 23 32.9999 23Z" fill="#1E40C8"/>
</svg>
