<svg width="132" height="24" viewBox="0 0 132 24" fill="none" xmlns="http://www.w3.org/2000/svg">
<path d="M6.22454 8.99793H21.2905V14.2479H5.55977V22.1613H0.290527V11.6613C0.290527 8.80272 1.31919 6.33458 3.36951 4.26386C5.41982 2.19315 7.91098 1.16129 10.829 1.16129H21.2905V6.41129H10.829C9.83534 6.41129 8.93964 6.65531 8.12092 7.15033C7.30219 7.64535 6.67239 8.25889 6.22454 8.99793Z" fill="#353535"/>
<path d="M28.5494 14.2479C26.7228 14.2479 25.175 13.6204 23.8921 12.3655C22.6092 11.1105 21.9678 9.56963 21.9678 7.74294C21.9678 5.96505 22.6092 4.4312 23.8921 3.12045C25.175 1.81666 26.7228 1.16129 28.5494 1.16129H42.9678V6.41129H28.5494C27.664 6.41129 27.2178 6.85748 27.2178 7.74294C27.2178 8.09155 27.3433 8.38439 27.5873 8.62841C27.8313 8.87244 28.152 8.99793 28.5494 8.99793H36.3861C38.164 8.99793 39.6909 9.65331 40.9738 10.9571C42.2566 12.2609 42.898 13.8017 42.898 15.5796C42.898 17.4063 42.2566 18.9541 40.9738 20.237C39.6909 21.5198 38.164 22.1613 36.3861 22.1613H21.9678V16.8346H36.3861C36.6789 16.8346 36.9648 16.7161 37.2367 16.4651C37.5086 16.221 37.6411 15.9212 37.6411 15.5796C37.6411 15.238 37.5016 14.9242 37.2367 14.6523C36.9648 14.3804 36.6789 14.2479 36.3861 14.2479H28.5494Z" fill="#353535"/>
<path d="M44.3228 11.6613C44.3228 8.80272 45.3514 6.33458 47.4017 4.26386C49.452 2.19315 51.9432 1.16129 54.8612 1.16129C57.7303 1.16129 60.1934 2.19315 62.2438 4.26386C64.2941 6.33458 65.3228 8.80272 65.3228 11.6613V22.1613H60.1305V11.6613C60.1305 10.232 59.6126 8.99793 58.57 7.96605C57.5343 6.92721 56.2958 6.41129 54.8612 6.41129C53.3777 6.41129 52.1251 6.92721 51.1105 7.96605C50.0958 8.99793 49.592 10.232 49.592 11.6613V22.1613H44.3228V11.6613Z" fill="#353535"/>
<path d="M85.7408 11.6648C86.5803 12.8496 87 14.153 87 15.5818C87 17.4079 86.3564 18.9552 85.0693 20.2376C83.7822 21.5201 82.2502 22.1613 80.4664 22.1613H66V16.8364H80.4664C80.7602 16.8364 81.047 16.7248 81.3198 16.5018C81.5926 16.2788 81.7255 15.9721 81.7255 15.5748C81.7255 14.7872 81.3548 14.3412 80.6133 14.2436C80.2635 14.2436 79.6479 14.2436 78.7595 14.2436C77.8711 14.2436 76.9197 14.2436 75.9054 14.2436C74.8911 14.2436 73.9397 14.2436 73.0513 14.2436C72.1629 14.2436 71.5683 14.2436 71.2675 14.2436V8.99533H80.4664C80.7602 8.99533 81.047 8.86987 81.3198 8.62593C81.5926 8.38199 81.7255 8.08229 81.7255 7.74078C81.7255 7.39925 81.5856 7.0856 81.3198 6.81378C81.047 6.54196 80.7672 6.40954 80.4664 6.40954H66V1.16129H80.4664C82.2502 1.16129 83.7822 1.81644 85.0693 3.1198C86.3564 4.42315 87 5.96348 87 7.74078C87 9.22534 86.5803 10.5287 85.7408 11.6648Z" fill="#3699EE"/>
<path d="M93.1151 6.85749C93.9311 6.56466 94.8265 6.41129 95.7941 6.41129H101.232C103.477 6.41129 105.391 7.18519 106.979 8.73997C108.568 10.2947 109.355 12.1284 109.355 14.2479C109.355 16.4651 108.561 18.3406 106.979 19.8675C105.398 21.3943 103.484 22.1613 101.232 22.1613H95.7941C93.5484 22.1613 91.6348 21.3943 90.0534 19.8675C88.472 18.3406 87.6777 16.4651 87.6777 14.2479V1.16129H93.1151V6.85749ZM101.232 11.6613H95.7941C95.0287 11.6613 94.386 11.9192 93.8806 12.4352C93.3679 12.9511 93.1151 13.5577 93.1151 14.2479C93.1151 14.987 93.3679 15.6145 93.8806 16.1374C94.3933 16.6533 95.0287 16.9113 95.7941 16.9113H101.232C101.997 16.9113 102.647 16.6533 103.188 16.1374C103.723 15.6214 103.99 14.9939 103.99 14.2479C103.99 13.5577 103.723 12.9511 103.188 12.4352C102.647 11.9192 101.997 11.6613 101.232 11.6613Z" fill="#3699EE"/>
<path d="M110.032 1.16129H131.032V6.41129H115.3V8.99793H122.05H124.499C126.282 8.99793 127.814 9.65331 129.102 10.9571C130.389 12.2609 131.032 13.8017 131.032 15.5796C131.032 17.4063 130.389 18.9541 129.102 20.237C127.814 21.5198 126.282 22.1613 124.499 22.1613H110.032V16.8346H124.499C124.792 16.8346 125.079 16.7161 125.352 16.4651C125.625 16.221 125.758 15.9212 125.758 15.5796C125.758 15.238 125.618 14.9242 125.352 14.6523C125.079 14.3804 124.799 14.2479 124.499 14.2479H122.05H110.032V11.6613V1.16129Z" fill="#3699EE"/>
</svg>
