<svg width="48" height="48" viewBox="0 0 48 48" fill="none" xmlns="http://www.w3.org/2000/svg">
<path d="M0 12C0 5.37258 5.37258 0 12 0H36C42.6274 0 48 5.37258 48 12V36C48 42.6274 42.6274 48 36 48H12C5.37258 48 0 42.6274 0 36V12Z" fill="#1E40C8" fill-opacity="0.2"/>
<path d="M14.375 23.625C14.3755 24.6592 14.0097 25.6601 13.3426 26.4503C12.6754 27.2404 11.7499 27.7688 10.7303 27.9417C10.5263 27.9759 10.341 28.0812 10.2073 28.2391C10.0736 28.3969 10.0002 28.597 10 28.8038L10 31.5C10 31.9641 10.1844 32.4092 10.5126 32.7374C10.8408 33.0656 11.2859 33.25 11.75 33.25L24.7636 33.25L36.5 33.25C36.9641 33.25 37.4092 33.0656 37.7374 32.7374C38.0656 32.4092 38.25 31.9641 38.25 31.5L38.25 28.8015C38.25 28.5946 38.1767 28.3944 38.0429 28.2365C37.9092 28.0786 37.7238 27.9733 37.5197 27.9393C36.4978 27.7691 35.5695 27.2418 34.8998 26.4514C34.2302 25.661 33.8627 24.6586 33.8627 23.6227C33.8627 22.5867 34.2302 21.5844 34.8998 20.7939C35.5695 20.0035 36.4978 19.4762 37.5197 19.306C37.7237 19.2718 37.909 19.1664 38.0427 19.0086C38.1764 18.8508 38.2498 18.6507 38.25 18.4438L38.25 15.75C38.25 15.2859 38.0656 14.8408 37.7374 14.5126C37.4092 14.1844 36.9641 14 36.5 14L11.75 14C11.2859 14 10.8408 14.1844 10.5126 14.5126C10.1844 14.8408 10 15.2859 10 15.75L10 18.4485C9.99995 18.6554 10.0733 18.8556 10.2071 19.0135C10.3408 19.1714 10.5262 19.2767 10.7303 19.3107C11.7495 19.4835 12.6747 20.0115 13.3418 20.8012C14.0089 21.5909 14.3749 22.5912 14.375 23.625Z" stroke="#1E40C8" stroke-width="2" stroke-linecap="round" stroke-linejoin="round"/>
<path d="M28.75 17.5L28.75 19.25" stroke="#1E40C8" stroke-width="2" stroke-linecap="round" stroke-linejoin="round"/>
<path d="M28.75 22.75L28.75 24.5" stroke="#1E40C8" stroke-width="2" stroke-linecap="round" stroke-linejoin="round"/>
<path d="M28.75 28L28.75 29.75" stroke="#1E40C8" stroke-width="2" stroke-linecap="round" stroke-linejoin="round"/>
</svg>
