<svg width="48" height="48" viewBox="0 0 48 48" fill="none" xmlns="http://www.w3.org/2000/svg">
<path d="M0 12C0 5.37258 5.37258 0 12 0H36C42.6274 0 48 5.37258 48 12V36C48 42.6274 42.6274 48 36 48H12C5.37258 48 0 42.6274 0 36V12Z" fill="#1E40C8" fill-opacity="0.2"/>
<path d="M25.8667 36C28.2665 36 30.6123 35.2962 32.6076 33.9776C34.603 32.6591 36.1581 30.7849 37.0765 28.5922C37.9948 26.3995 38.2351 23.9867 37.7669 21.6589C37.2988 19.3311 36.1432 17.193 34.4463 15.5147C32.7494 13.8365 30.5875 12.6936 28.2338 12.2306C25.8802 11.7676 23.4406 12.0052 21.2235 12.9135C19.0064 13.8217 17.1115 15.3598 15.7782 17.3332C14.445 19.3066 13.7334 21.6266 13.7334 24V25.8462" stroke="#1E40C8" stroke-width="2" stroke-linecap="round" stroke-linejoin="round"/>
<path d="M10 22.1539L13.7333 25.8462L17.4667 22.1539" stroke="#1E40C8" stroke-width="2" stroke-linecap="round" stroke-linejoin="round"/>
<path d="M30.2222 26.4616H25.2444V17.8462" stroke="#1E40C8" stroke-width="2" stroke-linecap="round" stroke-linejoin="round"/>
</svg>
