<svg width="48" height="48" viewBox="0 0 48 48" fill="none" xmlns="http://www.w3.org/2000/svg">
<path d="M0 12C0 5.37258 5.37258 0 12 0H36C42.6274 0 48 5.37258 48 12V36C48 42.6274 42.6274 48 36 48H12C5.37258 48 0 42.6274 0 36V12Z" fill="#1E40C8" fill-opacity="0.2"/>
<path d="M16.8 26.7939V31.5939H12" stroke="#1E40C8" stroke-width="2" stroke-linecap="round" stroke-linejoin="round"/>
<path d="M31.2 21.994V17.194H36" stroke="#1E40C8" stroke-width="2" stroke-linecap="round" stroke-linejoin="round"/>
<path d="M31.5009 17.1908C33.156 18.9151 34.1668 21.1568 34.3633 23.5389C34.5598 25.921 33.9299 28.298 32.5797 30.2703C31.2295 32.2425 29.2413 33.6896 26.9495 34.3682C24.6577 35.0467 22.2021 34.9153 19.9958 33.9961M16.4982 31.5972C14.8466 29.8719 13.839 27.631 13.6445 25.2506C13.4499 22.8703 14.0803 20.4955 15.4298 18.525C16.7793 16.5545 18.7657 15.1083 21.0554 14.4293C23.3451 13.7503 25.7988 13.8798 28.0043 14.7961" stroke="#1E40C8" stroke-width="2" stroke-linecap="round" stroke-linejoin="round"/>
<path d="M25.1991 21.2H23.0306C22.6982 21.2002 22.3763 21.3161 22.1201 21.5277C21.8638 21.7393 21.6892 22.0335 21.6261 22.3598C21.563 22.6861 21.6155 23.0242 21.7744 23.3161C21.9334 23.608 22.1889 23.8354 22.4972 23.9595L24.6988 24.8405C25.0072 24.9646 25.2627 25.1921 25.4216 25.4839C25.5806 25.7758 25.633 26.1139 25.57 26.4402C25.5069 26.7665 25.3323 27.0607 25.076 27.2723C24.8197 27.4839 24.4978 27.5998 24.1655 27.6H21.9991" stroke="#1E40C8" stroke-width="2" stroke-linecap="round" stroke-linejoin="round"/>
<path d="M23.5994 21.2V20.4" stroke="#1E40C8" stroke-width="2" stroke-linecap="round" stroke-linejoin="round"/>
<path d="M23.5994 28.4V27.6" stroke="#1E40C8" stroke-width="2" stroke-linecap="round" stroke-linejoin="round"/>
</svg>
