<svg width="48" height="48" viewBox="0 0 48 48" fill="none" xmlns="http://www.w3.org/2000/svg">
<path d="M0 12C0 5.37258 5.37258 0 12 0H36C42.6274 0 48 5.37258 48 12V36C48 42.6274 42.6274 48 36 48H12C5.37258 48 0 42.6274 0 36V12Z" fill="#1E40C8" fill-opacity="0.2"/>
<path d="M21.5 16.5H12.75C12.2859 16.5 11.8408 16.6844 11.5126 17.0126C11.1844 17.3408 11 17.7859 11 18.25V34C11 34.4641 11.1844 34.9092 11.5126 35.2374C11.8408 35.5656 12.2859 35.75 12.75 35.75H35.5C35.9641 35.75 36.4092 35.5656 36.7374 35.2374C37.0656 34.9092 37.25 34.4641 37.25 34V18.25C37.25 17.7859 37.0656 17.3408 36.7374 17.0126C36.4092 16.6844 35.9641 16.5 35.5 16.5H26.75" stroke="#1E40C8" stroke-width="2" stroke-linecap="round" stroke-linejoin="round"/>
<path d="M26.75 15.625C26.75 14.9288 26.4734 14.2611 25.9812 13.7688C25.4889 13.2766 24.8212 13 24.125 13C23.4288 13 22.7611 13.2766 22.2688 13.7688C21.7766 14.2611 21.5 14.9288 21.5 15.625V19.125C21.5 19.3571 21.5922 19.5796 21.7563 19.7437C21.9204 19.9078 22.1429 20 22.375 20H25.875C26.1071 20 26.3296 19.9078 26.4937 19.7437C26.6578 19.5796 26.75 19.3571 26.75 19.125V15.625Z" stroke="#1E40C8" stroke-width="2" stroke-linecap="round" stroke-linejoin="round"/>
<path d="M19.75 29.625C21.4414 29.625 22.8125 28.2539 22.8125 26.5625C22.8125 24.8711 21.4414 23.5 19.75 23.5C18.0586 23.5 16.6875 24.8711 16.6875 26.5625C16.6875 28.2539 18.0586 29.625 19.75 29.625Z" stroke="#1E40C8" stroke-width="2" stroke-linecap="round" stroke-linejoin="round"/>
<path d="M14.5 35.75C14.5 34.3576 15.0531 33.0223 16.0377 32.0377C17.0223 31.0531 18.3576 30.5 19.75 30.5C21.1424 30.5 22.4777 31.0531 23.4623 32.0377C24.4469 33.0223 25 34.3576 25 35.75H14.5Z" stroke="#1E40C8" stroke-width="2" stroke-linecap="round" stroke-linejoin="round"/>
<path d="M26.75 25.25H32" stroke="#1E40C8" stroke-width="2" stroke-linecap="round" stroke-linejoin="round"/>
<path d="M26.75 28.75H33.75" stroke="#1E40C8" stroke-width="2" stroke-linecap="round" stroke-linejoin="round"/>
</svg>
